<mxfile host="app.diagrams.net" modified="2021-07-23T02:39:09.300Z" agent="5.0 (Macintosh; Intel Mac OS X 10_15_7) AppleWebKit/537.36 (KHTML, like Gecko) Chrome/91.0.4472.164 Safari/537.36" etag="AKVgXFVmRU-rkDomIWad" version="14.9.0" type="github">
  <diagram id="0oDl1MHd10yxktUDLVmI" name="Page-1">
    <mxGraphModel dx="1255" dy="811" grid="1" gridSize="10" guides="1" tooltips="1" connect="1" arrows="1" fold="1" page="1" pageScale="1" pageWidth="827" pageHeight="1169" math="0" shadow="0">
      <root>
        <mxCell id="0" />
        <mxCell id="1" parent="0" />
        <mxCell id="EZFK8i8KoXwRZ8VUh1wl-1" value="" style="ellipse;whiteSpace=wrap;html=1;fillColor=#ffe6cc;strokeColor=#d79b00;" parent="1" vertex="1">
          <mxGeometry x="260" y="250" width="200" height="130" as="geometry" />
        </mxCell>
        <mxCell id="EZFK8i8KoXwRZ8VUh1wl-4" value="T-3" style="text;html=1;strokeColor=none;fillColor=none;align=center;verticalAlign=middle;whiteSpace=wrap;rounded=0;fontSize=20;fontStyle=1" parent="1" vertex="1">
          <mxGeometry x="150" y="305" width="40" height="20" as="geometry" />
        </mxCell>
        <mxCell id="EZFK8i8KoXwRZ8VUh1wl-5" value="T-2" style="text;html=1;strokeColor=none;fillColor=none;align=center;verticalAlign=middle;whiteSpace=wrap;rounded=0;fontSize=20;fontStyle=1" parent="1" vertex="1">
          <mxGeometry x="150" y="480" width="40" height="20" as="geometry" />
        </mxCell>
        <mxCell id="XyFCjjfE8dOl_hGJLJF1-1" value="" style="ellipse;whiteSpace=wrap;html=1;fillColor=#ffe6cc;strokeColor=#d79b00;" vertex="1" parent="1">
          <mxGeometry x="240" y="425" width="200" height="130" as="geometry" />
        </mxCell>
        <mxCell id="EZFK8i8KoXwRZ8VUh1wl-2" value="" style="ellipse;whiteSpace=wrap;html=1;fillColor=#dae8fc;strokeColor=#6c8ebf;" parent="1" vertex="1">
          <mxGeometry x="280" y="425" width="200" height="130" as="geometry" />
        </mxCell>
        <mxCell id="XyFCjjfE8dOl_hGJLJF1-2" value="T-1" style="text;html=1;strokeColor=none;fillColor=none;align=center;verticalAlign=middle;whiteSpace=wrap;rounded=0;fontSize=20;fontStyle=1" vertex="1" parent="1">
          <mxGeometry x="150" y="680" width="40" height="20" as="geometry" />
        </mxCell>
        <mxCell id="XyFCjjfE8dOl_hGJLJF1-3" value="" style="ellipse;whiteSpace=wrap;html=1;fillColor=#ffe6cc;strokeColor=#d79b00;" vertex="1" parent="1">
          <mxGeometry x="238" y="610" width="200" height="130" as="geometry" />
        </mxCell>
        <mxCell id="XyFCjjfE8dOl_hGJLJF1-4" value="" style="ellipse;whiteSpace=wrap;html=1;fillColor=#dae8fc;strokeColor=#6c8ebf;" vertex="1" parent="1">
          <mxGeometry x="278" y="610" width="200" height="130" as="geometry" />
        </mxCell>
        <mxCell id="EZFK8i8KoXwRZ8VUh1wl-3" value="" style="ellipse;whiteSpace=wrap;html=1;fillColor=#f5f5f5;strokeColor=#666666;fontColor=#333333;" parent="1" vertex="1">
          <mxGeometry x="322" y="610" width="200" height="130" as="geometry" />
        </mxCell>
        <mxCell id="XyFCjjfE8dOl_hGJLJF1-5" value="老模式" style="text;html=1;strokeColor=none;fillColor=none;align=center;verticalAlign=middle;whiteSpace=wrap;rounded=0;fontSize=20;" vertex="1" parent="1">
          <mxGeometry x="322" y="190" width="78" height="20" as="geometry" />
        </mxCell>
        <mxCell id="XyFCjjfE8dOl_hGJLJF1-6" value="理想模式" style="text;html=1;strokeColor=none;fillColor=none;align=center;verticalAlign=middle;whiteSpace=wrap;rounded=0;fontSize=20;" vertex="1" parent="1">
          <mxGeometry x="640" y="190" width="130" height="20" as="geometry" />
        </mxCell>
        <mxCell id="XyFCjjfE8dOl_hGJLJF1-7" value="" style="ellipse;whiteSpace=wrap;html=1;fillColor=#ffe6cc;strokeColor=#d79b00;" vertex="1" parent="1">
          <mxGeometry x="605" y="250" width="200" height="130" as="geometry" />
        </mxCell>
        <mxCell id="XyFCjjfE8dOl_hGJLJF1-8" value="" style="ellipse;whiteSpace=wrap;html=1;fillColor=#dae8fc;strokeColor=#6c8ebf;" vertex="1" parent="1">
          <mxGeometry x="605" y="435" width="200" height="130" as="geometry" />
        </mxCell>
        <mxCell id="XyFCjjfE8dOl_hGJLJF1-9" value="" style="ellipse;whiteSpace=wrap;html=1;fillColor=#f5f5f5;strokeColor=#666666;fontColor=#333333;" vertex="1" parent="1">
          <mxGeometry x="605" y="620" width="200" height="130" as="geometry" />
        </mxCell>
      </root>
    </mxGraphModel>
  </diagram>
</mxfile>
